<mxfile host="app.diagrams.net" agent="Mozilla/5.0 (Macintosh; Intel Mac OS X 10_15_7) AppleWebKit/537.36 (KHTML, like Gecko) Chrome/133.0.0.0 Safari/537.36" version="26.0.16">
  <diagram name="Page-1" id="ijG_BgC3t4vdo7ootLcb">
    <mxGraphModel dx="1671" dy="879" grid="1" gridSize="10" guides="0" tooltips="1" connect="1" arrows="1" fold="1" page="1" pageScale="1" pageWidth="2000" pageHeight="800" math="0" shadow="0">
      <root>
        <mxCell id="0" />
        <mxCell id="1" parent="0" />
        <mxCell id="NnvlzP4zUqjAs9mgB_Xr-4" value="" style="group" vertex="1" connectable="0" parent="1">
          <mxGeometry x="40" y="350" width="200" height="100" as="geometry" />
        </mxCell>
        <mxCell id="NnvlzP4zUqjAs9mgB_Xr-1" value="Web App" style="rounded=1;whiteSpace=wrap;html=1;sketch=1;curveFitting=1;jiggle=2;glass=0;shadow=0;fillColor=#f5f5f5;strokeColor=#666666;fontSize=21;fontColor=#333333;" vertex="1" parent="NnvlzP4zUqjAs9mgB_Xr-4">
          <mxGeometry width="200" height="100" as="geometry" />
        </mxCell>
        <mxCell id="NnvlzP4zUqjAs9mgB_Xr-2" value="" style="shape=image;verticalLabelPosition=bottom;labelBackgroundColor=default;verticalAlign=top;aspect=fixed;imageAspect=0;image=https://static-00.iconduck.com/assets.00/next-js-icon-2048x2048-5dqjgeku.png;" vertex="1" parent="NnvlzP4zUqjAs9mgB_Xr-4">
          <mxGeometry x="150" y="50" width="40" height="40" as="geometry" />
        </mxCell>
      </root>
    </mxGraphModel>
  </diagram>
</mxfile>
